<?xml version="1.0" encoding="UTF-8"?>
<svg version="1.1" xmlns="http://www.w3.org/2000/svg" width="1024" height="1024">
<path d="M0 0 C337.92 0 675.84 0 1024 0 C1024 337.92 1024 675.84 1024 1024 C686.08 1024 348.16 1024 0 1024 C0 686.08 0 348.16 0 0 Z " fill="#F2F2F2" transform="translate(0,0)"/>
<path d="M0 0 C8.85751968 7.60923355 14.15400862 15.37098616 16.23046875 26.92578125 C16.6158863 32.53964595 16.58197558 38.12593243 16.5234375 43.75 C16.51782976 45.34853209 16.51356524 46.94706939 16.51057434 48.54560852 C16.49921814 52.71640713 16.46983259 56.88688335 16.4364624 61.05755615 C16.40556047 65.32803997 16.39202637 69.5985768 16.37695312 73.86914062 C16.34495221 82.22150074 16.29387028 90.57360069 16.23046875 98.92578125 C19.93992611 98.87367456 23.64709619 98.77854338 27.35546875 98.67578125 C28.4021875 98.66160156 29.44890625 98.64742187 30.52734375 98.6328125 C36.65666254 98.43884672 40.64534883 98.16513803 45.23046875 93.92578125 C48.28946473 89.52819784 47.6764013 84.2733433 47.73046875 79.11328125 C47.77171875 78.14068359 47.81296875 77.16808594 47.85546875 76.16601562 C47.91008862 71.12391885 47.75736466 67.89508679 44.32421875 64.0390625 C43.781604 63.49830078 43.23898926 62.95753906 42.67993164 62.40039062 C39.2567067 58.91777673 38.89744925 54.80261195 38.79296875 50.11328125 C38.91929023 43.25823557 40.96784229 39.18840771 45.7578125 34.3984375 C51.21879509 29.60444515 55.27140501 28.46098789 62.41015625 28.61328125 C68.14051445 29.24822399 72.3321599 31.60402635 76.10546875 35.92578125 C80.77770367 42.5218776 80.99848359 47.90002616 80.23046875 55.92578125 C78.56775337 61.85865205 75.25285584 65.50628366 70.23046875 68.92578125 C69.24046875 68.92578125 68.25046875 68.92578125 67.23046875 68.92578125 C67.25141602 69.59520752 67.27236328 70.26463379 67.29394531 70.9543457 C67.37816353 74.04883206 67.4294589 77.14307618 67.48046875 80.23828125 C67.51398438 81.29080078 67.5475 82.34332031 67.58203125 83.42773438 C67.7175133 94.43565107 65.0738274 103.05199954 57.375 111.05078125 C54.25743745 113.776519 51.12764222 115.5607096 47.23046875 116.92578125 C46.25078125 117.28542969 45.27109375 117.64507813 44.26171875 118.015625 C38.88639444 119.51629911 33.3242441 119.13613031 27.79296875 119.05078125 C26.67986328 119.04175781 25.56675781 119.03273438 24.41992188 119.0234375 C21.69001066 119.00000479 18.96021106 118.96413828 16.23046875 118.92578125 C16.23046875 125.52578125 16.23046875 132.12578125 16.23046875 138.92578125 C22.22728879 138.87463566 28.22155643 138.81156554 34.2175293 138.71826172 C36.25520518 138.69011568 38.29298895 138.66886959 40.33081055 138.65478516 C43.26797464 138.63326747 46.20385028 138.58657177 49.140625 138.53515625 C50.04506851 138.53392761 50.94951202 138.53269897 51.88136292 138.53143311 C60.84917123 138.32590038 65.90019212 134.68940633 72.34765625 128.5234375 C73.16159348 127.74582314 73.16159348 127.74582314 73.99197388 126.95249939 C75.12721765 125.85845175 76.25810873 124.75987086 77.38476562 123.65698242 C78.52946571 122.5468767 79.68745524 121.4503085 80.85839844 120.36791992 C89.36860921 112.62049925 89.36860921 112.62049925 92.421875 101.8203125 C92.36771956 99.85517921 92.30556894 97.89022561 92.23046875 95.92578125 C94.24285167 89.53350611 99.54304656 85.22186682 105.125 81.74609375 C110.18175916 79.77592784 116.46082813 80.1279797 121.6171875 81.61328125 C127.11392775 84.12607679 130.74783632 87.77257707 133.33984375 93.28515625 C135.30077622 99.09914901 135.18884693 105.61228703 132.66796875 111.23828125 C129.36144828 116.94847795 124.50308191 120.92219197 118.23046875 122.92578125 C116.24126536 122.73995406 114.25638455 122.50407316 112.27734375 122.23046875 C106.75092674 122.14796168 104.03362071 123.30598381 100.08117676 126.91290283 C97.11644141 129.8743579 94.28417765 132.93730966 91.48046875 136.05078125 C89.18664859 138.52449632 86.87559094 140.98158951 84.55859375 143.43359375 C84.00755981 144.01941223 83.45652588 144.60523071 82.88879395 145.20880127 C76.38024157 152.02731972 69.55582216 157.40602825 59.83517456 158.09573364 C57.04919785 158.15640197 54.27084655 158.15074491 51.484375 158.12109375 C49.96770485 158.11684891 49.96770485 158.11684891 48.4203949 158.11251831 C45.21112923 158.10138014 42.00214917 158.07628722 38.79296875 158.05078125 C36.60872801 158.04074323 34.42448286 158.03161882 32.24023438 158.0234375 C26.90344897 158.00316866 21.56727618 157.96400749 16.23046875 157.92578125 C16.23046875 164.52578125 16.23046875 171.12578125 16.23046875 177.92578125 C27.19237382 177.86280379 38.15399953 177.78734303 49.11565495 177.69006634 C54.20591198 177.6453897 59.29608947 177.60612752 64.38647461 177.5793457 C69.30143443 177.55328586 74.21608773 177.51286426 79.13085747 177.46259499 C81.00343442 177.44594444 82.87606437 177.43441889 84.74870491 177.42816734 C87.37714696 177.41850654 90.00480804 177.39042387 92.63305664 177.3581543 C93.40270248 177.35958939 94.17234833 177.36102448 94.96531677 177.36250305 C100.10206539 177.27364679 103.60309629 176.15386451 108.23046875 173.92578125 C114.09245229 172.94073624 120.13945501 173.8008094 125.23046875 176.92578125 C129.95325737 181.22091579 133.83964285 185.69907149 134.44140625 192.20703125 C134.7180946 199.27322594 133.241402 204.5307946 128.85546875 210.17578125 C124.17170671 215.08257957 119.67555086 217.00949247 112.98046875 217.23828125 C107.12043598 217.1420574 102.71242996 215.29767767 98.46875 211.2421875 C95.12949515 207.48249379 92.23046875 204.12184909 92.23046875 198.92578125 C78.86546875 199.42078125 78.86546875 199.42078125 65.23046875 199.92578125 C65.89046875 201.90578125 66.55046875 203.88578125 67.23046875 205.92578125 C67.45751953 208.90185547 67.45751953 208.90185547 67.42578125 211.98046875 C67.41933594 213.0890625 67.41289063 214.19765625 67.40625 215.33984375 C67.38949219 216.48195313 67.37273437 217.6240625 67.35546875 218.80078125 C67.34644531 219.96609375 67.33742188 221.13140625 67.328125 222.33203125 C67.30464307 225.19682702 67.27180016 228.0611966 67.23046875 230.92578125 C68.01977783 231.22379639 68.80908691 231.52181152 69.62231445 231.82885742 C72.36695703 232.98318477 73.54395715 233.97238519 75.41796875 236.23828125 C75.90652344 236.81191406 76.39507813 237.38554688 76.8984375 237.9765625 C80.94653082 243.90031196 80.92586702 249.98082971 80.23046875 256.92578125 C78.63286855 263.3697928 74.85179896 266.39285007 69.3515625 269.796875 C63.95198956 272.67068085 57.8780036 272.93221881 52.0078125 271.3125 C46.52069286 268.91254594 43.25244356 265.0181748 40.23046875 259.92578125 C38.31346657 254.17477472 37.96813981 247.07916668 40.2421875 241.3984375 C41.85083896 238.80430587 43.41042253 236.59139485 45.79003906 234.65991211 C48.77413844 231.06735993 47.6969024 225.57169384 47.66796875 221.11328125 C47.68794922 220.03240234 47.70792969 218.95152344 47.72851562 217.83789062 C47.72478245 211.75654486 47.5996436 207.5638284 43.23046875 202.92578125 C38.39860769 198.9105041 32.90312824 199.37230593 26.91796875 199.23828125 C25.89123047 199.20412109 24.86449219 199.16996094 23.80664062 199.13476562 C21.28135912 199.05254716 18.75641335 198.98331189 16.23046875 198.92578125 C16.2393512 199.81590408 16.24823364 200.70602692 16.25738525 201.62312317 C16.33786014 210.05199383 16.39859936 218.48073363 16.43771744 226.90990162 C16.45850526 231.24242995 16.48665967 235.57463823 16.53222656 239.90698242 C16.5760015 244.09563486 16.5996719 248.28398136 16.60997772 252.47284508 C16.61731279 254.06309506 16.631635 255.65333016 16.65338898 257.24344826 C16.85806609 272.83857229 13.2856251 284.30027599 2.73046875 296.05078125 C-5.95701541 304.4041314 -18.0313275 308.8296793 -29.89453125 309.30078125 C-41.97459556 309.06336958 -53.0269816 305.03798944 -62.76953125 297.92578125 C-63.92529598 296.59777513 -65.05373003 295.24514414 -66.14453125 293.86328125 C-67.67394092 292.01901593 -67.67394092 292.01901593 -69.76953125 290.92578125 C-73.35073389 290.9348706 -76.5865871 291.52636828 -80.09765625 292.22265625 C-98.8731068 295.81795529 -117.80306614 289.66540845 -133.7578125 279.98828125 C-152.5404709 267.12544904 -163.02296575 247.93258494 -167.76953125 225.92578125 C-167.98287439 223.92630945 -168.19173385 221.92635017 -168.39453125 219.92578125 C-168.94189416 216.61716797 -169.37184028 215.30162935 -171.83203125 212.9765625 C-173.56502911 211.80097706 -175.32717973 210.66743606 -177.11328125 209.57421875 C-188.35297028 202.59899997 -195.1630454 190.25995219 -198.26953125 177.67578125 C-202.03146876 160.41916914 -200.58488139 142.90594619 -191.46484375 127.484375 C-186.39968358 119.83995124 -180.18811146 111.13507136 -171.76953125 106.92578125 C-171.74375 105.80042969 -171.71796875 104.67507813 -171.69140625 103.515625 C-170.88864971 79.09577107 -162.86242294 57.58060918 -144.83984375 40.6171875 C-133.59945552 30.50083809 -117.55206105 22.48181075 -102.29296875 21.76171875 C-96.67810003 21.43143235 -93.08848895 21.14913664 -88.859375 17.2265625 C-86.97737623 14.99279764 -85.23620046 12.66159061 -83.48046875 10.328125 C-73.8536507 -2.30487618 -58.42201207 -7.65577933 -43.45703125 -10.76171875 C-27.31114972 -12.1300138 -13.25086154 -9.92412902 0 0 Z " fill="#080808" transform="translate(693.76953125,498.07421875)"/>
<path d="M0 0 C1.36880613 -0.00389798 2.7376082 -0.0095424 4.10640079 -0.0167709 C7.84854951 -0.03147188 11.59027514 -0.02137665 15.33240998 -0.00703418 C19.37536976 0.00410208 23.41827147 -0.00787561 27.46122742 -0.01687622 C35.37292814 -0.03079152 43.28446899 -0.02326571 51.19616207 -0.00820064 C60.41085621 0.00867663 69.62551072 0.00544714 78.84021554 0.00170528 C95.28013142 -0.00416991 111.71997065 0.00998623 128.15986633 0.03465271 C144.11171846 0.05858421 160.06346822 0.06565197 176.01533508 0.05516052 C193.391452 0.04375281 210.76752161 0.04181853 228.14363796 0.05625862 C229.99608631 0.05778445 231.84853468 0.05930481 233.70098305 0.06081963 C234.61240438 0.06157744 235.52382572 0.06233525 236.46286589 0.06311603 C242.88621795 0.06785907 249.30954888 0.06600736 255.73290062 0.06175423 C263.55825856 0.05682918 271.38351971 0.06280507 279.20885547 0.08264852 C283.2015082 0.09252358 287.19401351 0.09762329 291.18667412 0.08975601 C294.84132649 0.082702 298.49568128 0.08949701 302.1502944 0.10735964 C304.09892931 0.11332307 306.04759207 0.1045763 307.99621409 0.09531313 C316.76278158 0.15913003 321.66440542 1.5723323 328.18171692 7.6134491 C329.04521255 8.41264519 329.90870819 9.21184128 330.79837036 10.03525543 C334.83661077 13.87463544 338.81452076 17.76804166 342.75727844 21.70530701 C343.63334747 22.57641113 344.5094165 23.44751526 345.41203308 24.34501648 C347.78125924 26.70226832 350.14825334 29.06170883 352.51373863 31.42271137 C353.9951602 32.90117789 355.47715665 34.37906585 356.95932007 35.85678864 C361.60787157 40.49173114 366.25446687 45.12862126 370.89816236 49.76842904 C376.2403874 55.10615451 381.58913073 60.43723493 386.94350576 65.76277184 C391.10017056 69.89782865 395.25106088 74.03862416 399.39760447 78.18383002 C401.86768241 80.65286162 404.3401144 83.1194189 406.81860352 85.58000946 C409.57472783 88.3166056 412.31884145 91.06505213 415.06196594 93.81468201 C415.88063141 94.62413269 416.69929688 95.43358337 417.54277039 96.26756287 C418.28834198 97.01870361 419.03391357 97.76984436 419.80207825 98.54374695 C420.45093742 99.19113956 421.0997966 99.83853218 421.76831818 100.50554276 C425.25806842 104.7946684 425.64462429 108.72013649 425.66619873 114.13632202 C425.67143541 114.78972913 425.67667209 115.44313624 425.68206745 116.11634356 C425.69702659 118.29799745 425.69777168 120.47941597 425.69844055 122.66111755 C425.70606466 124.2284586 425.71449259 125.79579591 425.72366333 127.36312866 C425.74558705 131.6151732 425.75440405 135.86714585 425.75948977 140.11924052 C425.76313505 142.77652954 425.76937591 145.43379977 425.77649117 148.09108162 C425.80097567 157.36345878 425.81403596 166.63578004 425.81758118 175.90818787 C425.82121844 184.54874156 425.85112993 193.18894048 425.89298576 201.8293857 C425.92767687 209.25118729 425.94312939 216.67287119 425.94382721 224.09475332 C425.94462026 228.52608532 425.9533718 232.95705561 425.98182487 237.38830376 C426.00798642 241.55567347 426.01022184 245.72238101 425.99416924 249.8897953 C425.99235335 251.41761086 425.99905821 252.94546435 426.01498795 254.47319794 C426.14210648 267.45771109 426.14210648 267.45771109 422.96786499 271.37084961 C418.70391613 274.89738682 416.14478966 275.96419181 410.42329407 275.82542419 C407.07653203 275.29122948 404.94952936 273.63244319 402.39204407 271.50120544 C400.11138329 268.08021427 400.14428891 266.88143839 400.15153503 262.86346436 C400.14741104 261.10292725 400.14741104 261.10292725 400.14320374 259.30682373 C400.15039429 258.0178569 400.15758484 256.72889008 400.16499329 255.40086365 C400.16555738 254.03098051 400.16524087 252.66109677 400.16410828 251.29121399 C400.16353369 247.5703831 400.17530503 243.84968076 400.18925619 240.12887979 C400.20174598 236.24112869 400.20293267 232.35337475 400.20530701 228.46560669 C400.21152693 221.10269853 400.22794467 213.73984965 400.24800599 206.37696761 C400.27034905 197.99496186 400.2813544 189.61295331 400.29139686 181.2309252 C400.31231047 163.98765097 400.34749639 146.74443447 400.39204407 129.50120544 C399.61689453 129.51008789 398.841745 129.51897034 398.04310608 129.52812195 C390.68880706 129.60872844 383.33472638 129.66940129 375.98009872 129.70845413 C372.2002278 129.72920756 368.42072605 129.75729633 364.6410675 129.80296326 C360.98408197 129.84686458 357.32744842 129.87043426 353.67021942 129.88071442 C352.28453796 129.88802737 350.89887275 129.90230449 349.51334381 129.92412567 C335.36492173 130.13781258 323.98700358 127.21186125 313.39204407 117.50120544 C305.44430879 108.34750668 302.25574756 98.7383539 302.27851868 86.66966248 C302.27837265 86.01529709 302.27822662 85.3609317 302.27807617 84.68673706 C302.27876759 82.54412918 302.28652355 80.40161046 302.29438782 78.25901794 C302.29625474 76.76543729 302.29767735 75.27185602 302.29867554 73.77827454 C302.30247913 69.86235337 302.31229083 65.94646976 302.32337952 62.03056335 C302.33364019 58.02859505 302.33818311 54.02662063 302.34321594 50.02464294 C302.35391517 42.18347995 302.37096547 34.34234738 302.39204407 26.50120544 C263.12934898 26.53718591 223.86673538 26.59409467 184.60411453 26.6791264 C179.97027365 26.68914402 175.33643242 26.69898812 170.70259094 26.70872498 C169.78006484 26.71066635 168.85753874 26.71260772 167.9070573 26.71460792 C152.96373839 26.74564085 138.02043484 26.76261218 123.07708977 26.77439967 C107.74726869 26.78680453 92.41752832 26.8142909 77.08775818 26.85581851 C67.62615603 26.88097296 58.16468771 26.89432131 48.70305164 26.89263502 C42.21750016 26.89260529 35.73208515 26.9072063 29.24658684 26.93336973 C25.50306565 26.94803777 21.75982432 26.9561999 18.01627922 26.94700813 C13.95872089 26.93721381 9.90190491 26.9582001 5.84440613 26.98222351 C4.06716717 26.97058288 4.06716717 26.97058288 2.25402439 26.95870709 C-3.78031512 27.02218008 -8.05870777 27.07783577 -12.60795593 31.50120544 C-15.59744395 36.30864861 -16.03528993 40.45288142 -15.98547935 45.98177242 C-15.98983968 46.82572003 -15.9942 47.66966765 -15.99869245 48.53918943 C-16.00966242 51.37417927 -15.9992185 54.20868416 -15.98890686 57.04367065 C-15.99236273 59.09388846 -15.99712682 61.1441044 -16.00308859 63.19431645 C-16.01563797 68.83387862 -16.00941026 74.47328894 -16.00012994 80.11285174 C-15.99335587 86.19270215 -16.00381254 92.27252603 -16.0120697 98.35237122 C-16.02465465 109.57647716 -16.02354157 120.80053435 -16.0153353 132.02463929 C-16.0077912 142.39388361 -16.00581732 152.76311014 -16.00940323 163.13235664 C-16.00974696 164.1637357 -16.00974696 164.1637357 -16.01009764 165.2159507 C-16.01103164 168.00703695 -16.01198684 170.79812319 -16.01297693 173.58920943 C-16.02215608 199.77749681 -16.01383032 225.96575329 -15.99768624 252.1540359 C-15.98345077 275.42317734 -15.98472172 298.69226952 -15.99906921 321.96141052 C-16.01513208 348.10002446 -16.02150354 374.23861108 -16.01223242 400.37722927 C-16.01127026 403.16356567 -16.01033174 405.94990207 -16.00940323 408.73623848 C-16.009166 409.42231331 -16.00892876 410.10838813 -16.00868434 410.8152531 C-16.00527134 421.17754721 -16.00926387 431.53982158 -16.01684189 441.90211296 C-16.02541566 453.6848126 -16.02299473 465.46746521 -16.00699966 477.25016122 C-15.99910527 483.26412002 -15.99604526 489.27797877 -16.00594711 495.29193687 C-16.01487033 500.79467486 -16.01000022 506.29721982 -15.99401446 511.79994024 C-15.99065658 513.79314083 -15.99238323 515.78635765 -15.99964182 517.77954786 C-16.00873985 520.4848642 -15.99943238 523.18951588 -15.98547935 525.89479733 C-15.99250285 526.67205283 -15.99952635 527.44930833 -16.00676268 528.25011703 C-15.95377195 533.37665857 -15.01417249 536.94853596 -12.60795593 541.50120544 C-8.22632849 545.4092024 -4.46916882 546.07720295 1.21713257 545.99327087 C1.98643913 545.99794986 2.7557457 546.00262885 3.54836458 546.00744963 C6.11647555 546.01834984 8.68359915 546.00091647 11.25166321 545.98362732 C13.09663176 545.98581394 14.94159893 545.98981184 16.78656006 545.9954834 C20.7546119 546.00404128 24.72239313 546.00027473 28.69043159 545.98706055 C34.96389749 545.96672111 41.23709066 545.97670192 47.51055908 545.99131775 C60.82524517 546.0180707 74.13984264 546.01134083 87.45454407 546.00120544 C101.83222678 545.99026296 116.20976934 545.98499296 130.58742803 546.01849985 C136.82490081 546.03188741 143.06196531 546.02589401 149.2994138 546.00513458 C153.17726454 545.99616024 157.05495721 546.00361195 160.93279457 546.0155468 C162.73193138 546.01768067 164.53109135 546.01293848 166.33018875 546.00084114 C168.78519898 545.98526278 171.23895285 545.99417824 173.69393921 546.00914001 C174.76320124 545.99340667 174.76320124 545.99340667 175.85406452 545.97735548 C180.63328846 546.04227615 183.02188115 547.14172366 186.39204407 550.50120544 C189.06005119 554.5921497 189.05793593 558.76597442 188.39204407 563.50120544 C186.13973506 568.00582346 183.90253127 570.33942344 179.39204407 572.50120544 C176.7340252 572.78813361 174.31305398 572.91535401 171.65838623 572.89561462 C170.88670595 572.90170573 170.11502566 572.90779683 169.31996113 572.91407251 C166.73763742 572.93070321 164.15580678 572.92592657 161.57344055 572.92112732 C159.72027067 572.92846794 157.86710537 572.93705415 156.01394653 572.9467926 C150.98049914 572.96902633 145.94721538 572.97193808 140.91372561 572.97004509 C136.70693035 572.96992539 132.50016975 572.97848993 128.29338413 572.98682261 C118.36132215 573.00606612 108.4293442 573.00893821 98.49726868 573.00218201 C88.26861173 572.9955515 78.04031635 573.01836353 67.81173271 573.05549574 C59.01913934 573.08625091 50.22666186 573.09754613 41.43401581 573.09365892 C36.18763446 573.09159617 30.94153399 573.09699627 25.69520378 573.12155151 C20.75465681 573.1439101 15.81469389 573.14186528 10.8741436 573.12162399 C9.06827333 573.1182292 7.26236307 573.1232365 5.45654678 573.13760757 C-8.26133975 573.23917689 -20.22811477 571.41126931 -30.60795593 561.50120544 C-39.16396182 552.06544895 -41.76592669 543.58378851 -41.74217701 530.89125538 C-41.74452924 530.03331079 -41.74688147 529.1753662 -41.74930498 528.29142329 C-41.75597602 525.4089301 -41.75553733 522.52648219 -41.75512695 519.64398193 C-41.75842674 517.55949354 -41.76215255 515.47500579 -41.76626843 513.39051884 C-41.77628317 507.65611439 -41.78000437 501.92172039 -41.78265774 496.18730843 C-41.78656225 490.00513713 -41.79614037 483.82297412 -41.80487061 477.64080811 C-41.82369515 463.41515941 -41.8338895 449.18951264 -41.84233129 434.96385499 C-41.84653964 427.93286674 -41.85176134 420.90187933 -41.85701582 413.87089179 C-41.87490351 389.79917261 -41.88989968 365.72745318 -41.89733601 341.65572834 C-41.89781076 340.14498755 -41.89828665 338.63424675 -41.89876367 337.12350596 C-41.89900004 336.37432372 -41.89923642 335.62514148 -41.89947996 334.85325674 C-41.90068114 331.05760227 -41.9018966 327.2619478 -41.90312195 323.46629333 C-41.9033621 322.7130386 -41.90360225 321.95978386 -41.90384968 321.18370323 C-41.91174345 296.75875028 -41.93517818 272.33384587 -41.96767789 247.90891412 C-42.00198267 222.08021839 -42.02168767 196.25155107 -42.02498025 170.42283219 C-42.02539778 167.5869946 -42.02587734 164.75115702 -42.02640343 161.91531944 C-42.02652662 161.21706595 -42.02664981 160.51881247 -42.02677674 159.79939978 C-42.02910777 148.56763256 -42.04476212 137.33592179 -42.06524527 126.10417468 C-42.08551001 114.81301025 -42.09064426 103.52191251 -42.08147464 92.23072705 C-42.07692426 86.11497352 -42.07885945 79.99940314 -42.09823608 73.88367462 C-42.11582697 68.28323718 -42.11490288 62.68311706 -42.09933879 57.08267643 C-42.09695658 55.0584435 -42.10131795 53.03418883 -42.11316744 51.00998918 C-42.22013894 31.52716683 -42.22013894 31.52716683 -37.60795593 22.50120544 C-36.9247694 21.15275031 -36.9247694 21.15275031 -36.22778112 19.77705365 C-28.23943604 4.72488776 -16.30615147 -0.12453979 0 0 Z " fill="#070707" transform="translate(320.6079559326172,217.49879455566406)"/>
<path d="M0 0 C2.98170508 2.63540469 5.2221943 5.4443886 7 9 C7.10499077 12.11914061 7.14779184 15.21630048 7.14717102 18.33596802 C7.15084771 19.31616846 7.1545244 20.2963689 7.1583125 21.30627239 C7.16938203 24.61190164 7.17319873 27.91749949 7.17700195 31.22314453 C7.18326419 33.58481446 7.18991078 35.9464834 7.19691467 38.30815125 C7.21616785 45.41160407 7.22674758 52.51505751 7.23564246 59.61852914 C7.24002479 62.96372369 7.24539184 66.30891666 7.25063133 69.65410995 C7.26764639 80.77515649 7.28213964 91.89620204 7.28938007 103.0172596 C7.29128998 105.90408454 7.29321031 108.79090947 7.29516602 111.67773438 C7.29564976 112.39524305 7.2961335 113.11275172 7.2966319 113.85200308 C7.30492869 125.47010207 7.33025839 137.08809798 7.36274669 148.70615198 C7.39583104 160.6346669 7.41383017 172.56312947 7.41702431 184.49169052 C7.41918841 191.18888953 7.42836545 197.88591543 7.45348549 204.58307266 C7.47674067 210.88512043 7.4810095 217.18689791 7.47072411 223.48897743 C7.470228 225.80126023 7.47657034 228.11355621 7.49028015 230.42579842 C7.50796192 233.58490006 7.50091043 236.74302788 7.48774719 239.90213013 C7.49871644 240.8151817 7.50968568 241.72823326 7.52098733 242.66895306 C7.44929188 249.80594632 5.74024159 255.25975841 0.625 260.375 C-5.62589418 264.24460116 -11.78368042 264.82071873 -19 264 C-26.26659749 261.82785838 -31.90557576 258.27159238 -35.8125 251.6875 C-39.24104988 244.35300722 -39.26822926 236.11767809 -37.3359375 228.3203125 C-35.36608927 223.36999825 -32.25252313 219.64291164 -28.5859375 215.82421875 C-25.65808124 212.45646291 -24.99058134 210.59337537 -25.0625 206.0625 C-25.71985078 201.7656705 -27.60713538 199.73084225 -31 197 C-34.568079 195.2159605 -38.12091328 195.26645475 -42 196 C-51.59365712 201.46697373 -58.6895393 213.5139987 -61.57470703 223.890625 C-63.0935874 231.42399261 -62.94460119 239.34084321 -63 247 C-69.78782948 250.39391474 -81.87836281 248.4076722 -88.875 246.4375 C-101.7133455 241.84895061 -113.03219 233.24205497 -119.4375 221.0625 C-122.3029395 214.77963832 -125 207.98142643 -125 201 C-124.03320312 200.82984375 -123.06640625 200.6596875 -122.0703125 200.484375 C-106.73901406 197.68196453 -94.04404966 192.55687452 -83 181 C-82.41476562 180.4121875 -81.82953125 179.824375 -81.2265625 179.21875 C-74.959886 172.49353619 -68.70798631 163.96342232 -68.3125 154.5 C-68.65522448 150.27763441 -69.72259776 147.83451004 -73 145 C-77.1758842 142.51704183 -80.34284732 142.98389396 -85 144 C-88.2773458 145.03093208 -88.94199206 145.89475701 -90.640625 148.9765625 C-91.17171875 150.18054688 -91.7028125 151.38453125 -92.25 152.625 C-96.95974258 162.67663956 -103.99510626 169.52934677 -114.234375 173.96875 C-122.91305646 177.03181404 -132.91143505 177.84127127 -141.4375 174 C-149.31921649 169.3926255 -154.13457426 162.5808717 -157 154 C-159.87354956 142.52508734 -158.5747265 130.98143773 -152.71484375 120.7578125 C-148.73683 114.88497883 -143.29150904 111.14575452 -137 108 C-133.48568642 108.00741416 -129.98395189 108.07631922 -126.47265625 108.21484375 C-121.5475817 108.30939143 -118.26185733 107.75919639 -114 105 C-111.05100698 100.67481024 -110.3524526 97.18037921 -111 92 C-113.46613649 87.06772702 -115.90471388 84.99815142 -121 83 C-123.32268549 82.25692758 -125.63771909 81.61419304 -128 81 C-128.94019722 67.13209103 -123.23905257 54.89486147 -114.38549805 44.46557617 C-107.58520566 37.27224486 -96.25949061 30.23190039 -86.1875 29.91015625 C-85.465625 29.93980469 -84.74375 29.96945312 -84 30 C-83.84144531 31.03898438 -83.68289063 32.07796875 -83.51953125 33.1484375 C-80.89104844 49.3314929 -74.63029854 59.39576066 -62.43359375 70.29296875 C-58.74924008 72.87733882 -55.43253868 73.19543821 -51 73 C-47.38250482 71.79416827 -45.59404414 70.6930515 -43.125 67.8125 C-41.65260226 64.13150565 -41.32769631 60.87338606 -42 57 C-43.91967194 53.16065613 -46.22642872 50.73063659 -49.5 48.0625 C-54.51877324 43.89454884 -56.95589706 39.71934369 -58 33.25 C-58.52761095 24.78248775 -54.89669758 17.21993594 -49.62109375 10.7734375 C-37.19716787 -2.81803804 -16.97545177 -9.44601751 0 0 Z " fill="#F2F2F2" transform="translate(677,517)"/>
<path d="M0 0 C0.83004547 -0.00700928 1.66009094 -0.01401855 2.51528931 -0.02124023 C5.246215 -0.03877791 7.97609588 -0.0272128 10.70703125 -0.01367188 C12.61222532 -0.01636801 14.51741805 -0.02025144 16.42260742 -0.02526855 C20.41045262 -0.03115787 24.3979388 -0.0226189 28.38574219 -0.00390625 C33.49031656 0.01888294 38.59404962 0.00575682 43.69859314 -0.01819611 C47.63120837 -0.03266939 51.56362504 -0.02804107 55.49624634 -0.01768494 C57.37806295 -0.01502188 59.25989775 -0.01827256 61.14169312 -0.02760315 C63.77463336 -0.03779402 66.40622255 -0.02223288 69.0390625 0 C69.81222809 -0.00809692 70.58539368 -0.01619385 71.38198853 -0.02453613 C76.57410363 0.05644267 79.50654313 1.26065199 83.51953125 4.51757812 C87.62984568 9.19483248 87.67573969 13.5756237 87.6965332 19.56567383 C87.7031044 20.38552765 87.7096756 21.20538147 87.71644592 22.05007935 C87.73616404 24.76450696 87.74783782 27.4788793 87.7578125 30.19335938 C87.76188803 31.12088705 87.76596355 32.04841473 87.77016258 33.0040493 C87.79101635 37.91277214 87.80532143 42.82146707 87.81469727 47.73022461 C87.82576406 52.79779937 87.86016904 57.86493532 87.89986897 62.93235493 C87.92602316 66.83146477 87.93438801 70.73046981 87.93797874 74.62965965 C87.9428473 76.49754998 87.95446896 78.36543555 87.97301674 80.23324013 C87.99738435 82.84961295 87.99644778 85.46484709 87.98950195 88.08129883 C88.00231201 88.84982681 88.01512207 89.6183548 88.02832031 90.41017151 C87.97820815 95.59988775 86.77419492 98.50877959 83.51953125 102.51757812 C78.83468538 106.63456389 74.45425239 106.6700715 68.45556641 106.67871094 C67.63410629 106.68367584 66.81264618 106.68864075 65.96629333 106.6937561 C63.24705164 106.70836878 60.52786827 106.71517799 57.80859375 106.72070312 C55.91913857 106.726455 54.02968341 106.73221273 52.14022827 106.73797607 C48.17746712 106.7484833 44.21472625 106.75432789 40.25195312 106.7578125 C35.17539241 106.76329881 30.0990997 106.78733093 25.02262306 106.81578445 C21.11926491 106.83441154 17.21597133 106.83961646 13.31257248 106.84114838 C11.4410798 106.84417491 9.56958826 106.85220348 7.69813919 106.86533356 C5.07931385 106.88239669 2.4611436 106.88051332 -0.15771484 106.87402344 C-0.9298381 106.88323822 -1.70196136 106.892453 -2.4974823 106.90194702 C-7.01983184 106.86685685 -9.87848933 106.29318053 -13.48046875 103.51757812 C-18.1884178 98.28652363 -18.63379811 94.28891764 -18.6574707 87.46948242 C-18.6640419 86.6496286 -18.6706131 85.82977478 -18.67738342 84.9850769 C-18.69710154 82.27064929 -18.70877532 79.55627695 -18.71875 76.84179688 C-18.72282553 75.9142692 -18.72690105 74.98674152 -18.73110008 74.03110695 C-18.75195385 69.12238411 -18.76625893 64.21368918 -18.77563477 59.30493164 C-18.78670156 54.23735688 -18.82110654 49.17022093 -18.86080647 44.10280132 C-18.88696066 40.20369148 -18.89532551 36.30468644 -18.89891624 32.4054966 C-18.9037848 30.53760627 -18.91540646 28.6697207 -18.93395424 26.80191612 C-18.95832185 24.1855433 -18.95738528 21.57030916 -18.95043945 18.95385742 C-18.96324951 18.18532944 -18.97605957 17.41680145 -18.98925781 16.62498474 C-18.93891954 11.41185272 -17.87710665 8.46029247 -14.48046875 4.51757812 C-9.84327132 0.52366124 -5.92938291 -0.06209506 0 0 Z " fill="#070707" transform="translate(370.48046875,293.482421875)"/>
<path d="M0 0 C1.35969518 -0.01265991 1.35969518 -0.01265991 2.74685895 -0.02557558 C4.23487624 -0.01656051 4.23487624 -0.01656051 5.75295448 -0.00736332 C7.33819103 -0.01544163 7.33819103 -0.01544163 8.95545256 -0.02368313 C12.50840133 -0.03802831 16.06098097 -0.03084265 19.61394691 -0.023736 C22.15649657 -0.02943615 24.69904366 -0.03639902 27.24158669 -0.04453373 C33.43809878 -0.06065067 39.63447382 -0.06255758 45.83100055 -0.05732083 C50.86757323 -0.05328118 55.90411594 -0.05472024 60.94068718 -0.06006908 C61.65723144 -0.06081751 62.37377571 -0.06156593 63.11203343 -0.06233703 C64.56765592 -0.06386849 66.0232784 -0.06540684 67.47890086 -0.066952 C81.13399725 -0.08068448 94.78903637 -0.07523435 108.44413145 -0.06376678 C120.93644313 -0.05383601 133.42860667 -0.066771 145.9208955 -0.09070098 C158.74670729 -0.11508477 171.57245005 -0.12470148 184.39828455 -0.11804825 C191.59950227 -0.11455411 198.80060606 -0.11680075 206.00180626 -0.13429928 C212.77338549 -0.15054959 219.54463638 -0.14585082 226.31622314 -0.12699413 C228.80349421 -0.12329864 231.29078611 -0.12644448 233.77803802 -0.13687992 C237.1698272 -0.15002531 240.56066938 -0.13859839 243.95241737 -0.12088871 C244.93996745 -0.13049372 245.92751754 -0.14009872 246.94499338 -0.14999479 C252.76503388 -0.08734163 256.02457306 0.5425995 260.47966957 4.38031673 C263.40429321 8.58974614 263.10889161 13.45529488 262.47966957 18.38031673 C260.86119139 21.73716037 259.72736381 23.66889493 256.48040962 25.52027321 C252.0403957 26.7928277 247.75231398 26.65870512 243.15532875 26.64101315 C241.58000287 26.64675147 241.58000287 26.64675147 239.97285223 26.65260571 C236.44838128 26.66293713 232.92407319 26.65894326 229.39959145 26.65497494 C226.87497748 26.65932128 224.35036484 26.66450417 221.82575417 26.67046261 C215.67719711 26.682478 209.52870026 26.68500317 203.38013375 26.68266235 C198.38315095 26.68087942 193.38618142 26.68262827 188.38920021 26.68688679 C187.67805344 26.68748198 186.96690666 26.68807717 186.23420998 26.68869039 C184.78953731 26.68990214 183.34486463 26.69111627 181.90019196 26.69233277 C168.35291097 26.70320861 154.80565488 26.70104543 141.25837249 26.69494792 C128.86247235 26.68977707 116.46665075 26.70103853 104.07076615 26.72004614 C91.3432466 26.73941274 78.61576423 26.74768272 65.88822985 26.74392289 C58.74240884 26.74200926 51.59665472 26.74451421 44.45084572 26.75863743 C37.73347622 26.77177953 31.01628976 26.76930731 24.29891205 26.75622654 C21.83056969 26.75385313 19.36221636 26.75662261 16.89388657 26.76484966 C13.53040949 26.77525386 10.16746779 26.76726709 6.80401039 26.75453854 C5.82201149 26.76191282 4.84001258 26.76928711 3.82825613 26.77688485 C-2.62156999 26.72535983 -6.00311363 25.69343488 -10.83283043 21.25531673 C-13.18751989 17.24362358 -13.32213863 13.92656925 -12.52033043 9.38031673 C-9.6600588 3.86407859 -6.45268525 0.00849178 0 0 Z " fill="#060606" transform="translate(364.52033042907715,434.61968326568604)"/>
<path d="M0 0 C0.65663623 -0.00382555 1.31327247 -0.00765109 1.98980677 -0.01159257 C4.18840535 -0.02190501 6.38674192 -0.01793383 8.58535767 -0.01396179 C10.16240175 -0.01830928 11.73944372 -0.02349256 13.31648254 -0.02944946 C17.59959357 -0.04284769 21.8826164 -0.04341715 26.1657443 -0.04088616 C29.74177404 -0.03981687 33.31778591 -0.04469882 36.89381182 -0.04949158 C45.33120917 -0.06058992 53.76856201 -0.06102254 62.20596313 -0.05497742 C70.9083207 -0.04893827 79.61051656 -0.06124636 88.31284654 -0.08254749 C95.78558107 -0.10016587 103.25826413 -0.10616442 110.73101866 -0.10290974 C115.19356088 -0.1010969 119.65598779 -0.10373303 124.1185112 -0.11762428 C128.31611576 -0.13020165 132.51346841 -0.12825945 136.71106911 -0.11521339 C138.2501579 -0.11284775 139.78926442 -0.11558191 141.3283329 -0.12383652 C143.43264047 -0.1343073 145.53610334 -0.12620167 147.64038086 -0.11352539 C148.81692419 -0.11369313 149.99346752 -0.11386087 151.20566368 -0.1140337 C156.30244422 0.47517223 159.48232927 2.14350769 162.82217407 6.01069641 C165.38956047 11.1454692 164.96709678 14.61883522 163.25967407 20.01069641 C161.23086602 23.64855912 160.15506854 24.51892802 156.44717407 26.26069641 C153.27182865 26.64380646 153.27182865 26.64380646 149.62223816 26.65510559 C148.94841329 26.66119669 148.27458842 26.6672878 147.58034462 26.67356348 C145.32948275 26.69017126 143.07918798 26.6854211 140.82827759 26.68061829 C139.21167413 26.6879599 137.59507591 26.6965464 135.97848511 26.70628357 C131.59210814 26.72849774 127.20591903 26.73143034 122.81949353 26.72953606 C119.15641739 26.72941636 115.49338107 26.73798009 111.83031601 26.74631357 C103.18817071 26.76554699 94.54612201 26.76843156 85.90396118 26.76167297 C76.99073817 26.75503067 68.07792884 26.77790419 59.16478974 26.81498671 C51.50943255 26.84567975 43.85420846 26.85704421 36.19879097 26.85314989 C31.62775235 26.85108212 27.05703569 26.85656598 22.48605537 26.88104248 C18.18734411 26.90330091 13.88930574 26.90143971 9.59059143 26.88111496 C8.01440852 26.87770336 6.43818039 26.88280058 4.86205864 26.89709854 C2.70695373 26.91529752 0.55413024 26.902542 -1.60090637 26.88215637 C-2.80564826 26.88286888 -4.01039015 26.88358139 -5.25163937 26.88431549 C-9.68752532 26.04634312 -11.35558206 24.40702989 -14.55282593 21.26069641 C-16.53646268 17.29342291 -16.10033751 12.57387101 -15.55282593 8.26069641 C-12.2482627 1.53260569 -6.9993947 0.0122206 0 0 Z " fill="#0B0B0B" transform="translate(367.5528259277344,494.7393035888672)"/>
<path d="M0 0 C0.9238298 -0.00708481 1.84765961 -0.01416962 2.79948425 -0.02146912 C3.80582916 -0.0189917 4.81217407 -0.01651428 5.84901428 -0.01396179 C6.91445969 -0.01907272 7.97990509 -0.02418365 9.07763672 -0.02944946 C12.6031301 -0.04336105 16.12842834 -0.04238752 19.65394592 -0.04008484 C22.10247877 -0.04397082 24.55101094 -0.04830528 26.99954224 -0.05307007 C32.13330775 -0.0605356 37.26700449 -0.0602385 42.40077209 -0.05497742 C48.98280294 -0.0491815 55.5645525 -0.06611542 62.14653683 -0.08932209 C67.20369109 -0.10404639 72.2607774 -0.10493291 77.3179493 -0.10181236 C79.74485901 -0.1023262 82.17177246 -0.10757558 84.59866142 -0.11762428 C87.99089265 -0.12994617 91.38257326 -0.12322214 94.77479553 -0.11161804 C95.77911621 -0.11926178 96.78343689 -0.12690552 97.81819153 -0.13478088 C102.80169724 -0.09705803 106.37756283 -0.06579668 110.37660217 3.26069641 C113.11185544 6.51343003 114.28464976 8.52507707 114.81410217 12.76069641 C114.20220352 17.65588565 112.74240855 20.75328171 109.4354248 24.40313721 C104.9072551 27.15300025 100.82734191 26.82744494 95.62294006 26.79414368 C94.53944778 26.80275925 93.45595551 26.81137482 92.33963013 26.82025146 C88.75926298 26.84294768 85.17967623 26.83616522 81.59925842 26.82710266 C79.10970832 26.83233673 76.62016021 26.83861242 74.13061523 26.84588623 C68.244613 26.85763057 62.35889006 26.84801514 56.47290748 26.83148187 C51.78381444 26.82054745 47.09517463 26.8326588 42.40614319 26.85762024 C35.93581914 26.8916719 29.46596076 26.90128311 22.99555779 26.89083672 C20.53039546 26.89001647 18.06521811 26.89689384 15.60009956 26.91160774 C12.15274881 26.92902888 8.70694726 26.91452881 5.25965881 26.89179993 C4.24180298 26.90349213 3.22394714 26.91518433 2.17524719 26.92723083 C-2.36092544 26.86638697 -5.59915389 26.78245691 -9.21374512 23.86187744 C-12.23015463 20.60571228 -13.59336058 18.61218363 -13.65074158 14.12007141 C-13.322556 9.03740255 -12.45384286 5.87225887 -8.62339783 2.26069641 C-5.64786173 0.46899955 -3.45520733 0.00885533 0 0 Z " fill="#060706" transform="translate(364.62339782714844,554.7393035888672)"/>
<path d="M0 0 C6.76717352 5.55559138 12.88143244 11.73587695 19.05859375 17.92578125 C20.21429604 19.08080904 21.37014667 20.23568843 22.52613831 21.39042664 C24.93401006 23.79683185 27.34008283 26.20501739 29.74487305 28.61450195 C32.83406336 31.7094276 35.92777356 34.79979032 39.02281094 37.88886738 C41.40339924 40.2658546 43.78161618 42.64520283 46.1591053 45.02528954 C47.29991231 46.16676509 48.44146664 47.30749425 49.58376884 48.44747353 C51.17081931 50.03200077 52.75465692 51.61966919 54.33764648 53.20825195 C55.24030746 54.11170853 56.14296844 55.0151651 57.07298279 55.94599915 C59 58 59 58 59 59 C52.29236858 59.10170678 45.58493721 59.17159405 38.87670898 59.21972656 C36.59635995 59.2397992 34.31606211 59.26706343 32.03588867 59.30175781 C28.75166158 59.35046609 25.46811708 59.37301286 22.18359375 59.390625 C20.66287514 59.42159271 20.66287514 59.42159271 19.11143494 59.45318604 C12.8435772 59.45515765 9.10018693 58.72582885 4 55 C0.72657504 50.63543338 -0.12827333 46.69149108 -0.11352539 41.32324219 C-0.11341209 39.94226349 -0.11341209 39.94226349 -0.11329651 38.53338623 C-0.10813522 37.54783752 -0.10297394 36.56228882 -0.09765625 35.546875 C-0.0962413 34.53151672 -0.09482635 33.51615845 -0.09336853 32.47003174 C-0.08777516 29.22999108 -0.07522385 25.99001975 -0.0625 22.75 C-0.05748414 20.55208433 -0.05292139 18.35416758 -0.04882812 16.15625 C-0.0378079 10.77080971 -0.02107633 5.38540981 0 0 Z " fill="#EEEEEF" transform="translate(649,262)"/>
<path d="M0 0 C0.33 0 0.66 0 1 0 C1.81477811 8.93334243 2.13689135 17.77036197 2.09765625 26.73828125 C2.09553383 28.60845161 2.09553383 28.60845161 2.09336853 30.5164032 C2.0878284 34.44846122 2.07528752 38.38045957 2.0625 42.3125 C2.05690443 44.99934751 2.05284677 47.68619661 2.04882812 50.37304688 C2.03787867 56.9153845 2.02120147 63.45768799 2 70 C3.05960938 69.97679687 4.11921875 69.95359375 5.2109375 69.9296875 C6.5989513 69.91093056 7.9869727 69.89273028 9.375 69.875 C10.07367187 69.85824219 10.77234375 69.84148437 11.4921875 69.82421875 C13.32897486 69.80655733 15.16601963 69.89696739 17 70 C17.66 70.66 18.32 71.32 19 72 C12.73 72 6.46 72 0 72 C0 48.24 0 24.48 0 0 Z " fill="#FBFBFC" transform="translate(710,525)"/>
<path d="M0 0 C0.33 0 0.66 0 1 0 C1.33 24.42 1.66 48.84 2 74 C1.01 73.67 0.02 73.34 -1 73 C-0.67 48.91 -0.34 24.82 0 0 Z " fill="#0F0F0F" transform="translate(625,244)"/>
<path d="M0 0 C0.99 0.33 1.98 0.66 3 1 C3 6.28 3 11.56 3 17 C-0.30994713 18.65497356 -3.99123 18.10084335 -7.625 18.0625 C-8.42679688 18.05798828 -9.22859375 18.05347656 -10.0546875 18.04882812 C-12.03649006 18.03703168 -14.01825433 18.01909605 -16 18 C-16 17.34 -16 16.68 -16 16 C-8.08 15.505 -8.08 15.505 0 15 C0 10.05 0 5.1 0 0 Z " fill="#D3D3D3" transform="translate(611,747)"/>
<path d="M0 0 C1.65 1.65 3.3 3.3 5 5 C4.01 5.495 4.01 5.495 3 6 C2.67 12.93 2.34 19.86 2 27 C1.67 27 1.34 27 1 27 C0.67 18.09 0.34 9.18 0 0 Z " fill="#EBEBEC" transform="translate(650,263)"/>
<path d="M0 0 C0.33 0 0.66 0 1 0 C1.09907258 4.19915307 1.17156173 8.39768252 1.21972656 12.59765625 C1.23980982 14.02551121 1.26708252 15.45328425 1.30175781 16.88085938 C1.35042669 18.93640368 1.37299967 20.99085855 1.390625 23.046875 C1.41157227 24.28276367 1.43251953 25.51865234 1.45410156 26.79199219 C0.92239031 30.54827491 -0.07668162 31.68359893 -3 34 C-2.67854004 33.14841309 -2.35708008 32.29682617 -2.02587891 31.41943359 C-0.96802313 27.89341551 -0.6869781 24.96020423 -0.5859375 21.2890625 C-0.54726563 20.04511719 -0.50859375 18.80117188 -0.46875 17.51953125 C-0.4378125 16.23433594 -0.406875 14.94914063 -0.375 13.625 C-0.33632813 12.31660156 -0.29765625 11.00820313 -0.2578125 9.66015625 C-0.16380043 6.44024284 -0.07814179 3.2203312 0 0 Z " fill="#0D0D0D" transform="translate(686,735)"/>
<path d="M0 0 C0.66 0 1.32 0 2 0 C2.66 4.95 3.32 9.9 4 15 C3.01 14.67 2.02 14.34 1 14 C-0.14806378 4.58997722 -0.14806378 4.58997722 0 0 Z " fill="#E4E4E4" transform="translate(524,717)"/>
<path d="M0 0 C0.33 0.66 0.66 1.32 1 2 C0.67 2.99 0.34 3.98 0 5 C0.04125 5.804375 0.0825 6.60875 0.125 7.4375 C-0.02748163 10.56337334 -1.06934624 11.61953423 -3 14 C-3.02708567 12.39592672 -3.04643483 10.7917215 -3.0625 9.1875 C-3.07410156 8.29417969 -3.08570313 7.40085937 -3.09765625 6.48046875 C-3 4 -3 4 -2 1 C-1.34 0.67 -0.68 0.34 0 0 Z " fill="#ECECEC" transform="translate(522,647)"/>
<path d="M0 0 C3.55780196 0.60990891 6.6828589 1.5783681 10 3 C9.67 3.99 9.34 4.98 9 6 C7.68397477 5.38245741 6.37226444 4.75571258 5.0625 4.125 C4.33160156 3.77695312 3.60070312 3.42890625 2.84765625 3.0703125 C1 2 1 2 0 0 Z " fill="#E6E7E6" transform="translate(297,785)"/>
<path d="M0 0 C3.37503669 1.1858237 5.64722731 2.27573689 8 5 C7.67 5.66 7.34 6.32 7 7 C4.36 5.68 1.72 4.36 -1 3 C-0.67 2.01 -0.34 1.02 0 0 Z " fill="#161617" transform="translate(671,512)"/>
<path d="M0 0 C0.66 0.33 1.32 0.66 2 1 C0.1875 4 0.1875 4 -2 7 C-2.99 7 -3.98 7 -5 7 C-3.70700306 4.11562221 -2.34058637 2.12780579 0 0 Z " fill="#121212" transform="translate(294,225)"/>
<path d="M0 0 C2.5625 1.25 2.5625 1.25 5 3 C5.33 3.99 5.66 4.98 6 6 C4.0625 5.6875 4.0625 5.6875 2 5 C1.67 4.01 1.34 3.02 1 2 C0.01 1.67 -0.98 1.34 -2 1 C-1.34 0.67 -0.68 0.34 0 0 Z " fill="#101010" transform="translate(502,765)"/>
<path d="M0 0 C0.33 0.99 0.66 1.98 1 3 C1.66 3 2.32 3 3 3 C3 3.66 3 4.32 3 5 C4.32 5 5.64 5 7 5 C7 5.66 7 6.32 7 7 C4.36 6.67 1.72 6.34 -1 6 C-0.67 4.02 -0.34 2.04 0 0 Z " fill="#EAEAEA" transform="translate(551,593)"/>
<path d="M0 0 C1.98 0.99 1.98 0.99 4 2 C4 3.98 4 5.96 4 8 C3.34 8 2.68 8 2 8 C1.34 5.36 0.68 2.72 0 0 Z " fill="#0F0F0F" transform="translate(529,734)"/>
<path d="M0 0 C0.33 0 0.66 0 1 0 C1.38909985 1.45463481 1.76088029 2.91391207 2.125 4.375 C2.33382812 5.18710937 2.54265625 5.99921875 2.7578125 6.8359375 C2.83773437 7.55007813 2.91765625 8.26421875 3 9 C2.34 9.66 1.68 10.32 1 11 C-1.03684712 6.92630576 -1.0257259 4.41062136 0 0 Z " fill="#181818" transform="translate(519,666)"/>
</svg>
